
<svg width="299" height="57" viewBox="0 0 299 57" fill="none" xmlns="http://www.w3.org/2000/svg">
<g clip-path="url(#clip0_11_35)">
<path d="M82.1591 25H80.0455C79.9205 24.392 79.7017 23.858 79.3892 23.3977C79.0824 22.9375 78.7074 22.5511 78.2642 22.2386C77.8267 21.9205 77.3409 21.6818 76.8068 21.5227C76.2727 21.3636 75.7159 21.2841 75.1364 21.2841C74.0795 21.2841 73.1222 21.5511 72.2642 22.0852C71.4119 22.6193 70.733 23.4062 70.2273 24.446C69.7273 25.4858 69.4773 26.7614 69.4773 28.2727C69.4773 29.7841 69.7273 31.0597 70.2273 32.0994C70.733 33.1392 71.4119 33.9261 72.2642 34.4602C73.1222 34.9943 74.0795 35.2614 75.1364 35.2614C75.7159 35.2614 76.2727 35.1818 76.8068 35.0227C77.3409 34.8636 77.8267 34.6278 78.2642 34.3153C78.7074 33.9972 79.0824 33.608 79.3892 33.1477C79.7017 32.6818 79.9205 32.1477 80.0455 31.5455H82.1591C82 32.4375 81.7102 33.2358 81.2898 33.9403C80.8693 34.6449 80.3466 35.2443 79.7216 35.7386C79.0966 36.2273 78.3949 36.5994 77.6165 36.8551C76.8438 37.1108 76.017 37.2386 75.1364 37.2386C73.6477 37.2386 72.3239 36.875 71.1648 36.1477C70.0057 35.4205 69.0938 34.3864 68.429 33.0455C67.7642 31.7045 67.4318 30.1136 67.4318 28.2727C67.4318 26.4318 67.7642 24.8409 68.429 23.5C69.0938 22.1591 70.0057 21.125 71.1648 20.3977C72.3239 19.6705 73.6477 19.3068 75.1364 19.3068C76.017 19.3068 76.8438 19.4347 77.6165 19.6903C78.3949 19.946 79.0966 20.321 79.7216 20.8153C80.3466 21.304 80.8693 21.9006 81.2898 22.6051C81.7102 23.304 82 24.1023 82.1591 25ZM95.12 23.9091C95.0178 23.0455 94.603 22.375 93.8757 21.8977C93.1484 21.4205 92.2564 21.1818 91.1996 21.1818C90.4268 21.1818 89.7507 21.3068 89.1712 21.5568C88.5973 21.8068 88.1484 22.1506 87.8246 22.5881C87.5064 23.0256 87.3473 23.5227 87.3473 24.0795C87.3473 24.5455 87.4581 24.946 87.6797 25.2812C87.907 25.6108 88.1967 25.8864 88.549 26.108C88.9013 26.3239 89.2706 26.5028 89.657 26.6449C90.0433 26.7812 90.3984 26.892 90.7223 26.9773L92.495 27.4545C92.9496 27.5739 93.4553 27.7386 94.0121 27.9489C94.5746 28.1591 95.1115 28.446 95.6229 28.8097C96.1399 29.1676 96.5661 29.6278 96.9013 30.1903C97.2365 30.7528 97.4041 31.4432 97.4041 32.2614C97.4041 33.2045 97.157 34.0568 96.6626 34.8182C96.174 35.5795 95.4581 36.1847 94.5149 36.6335C93.5774 37.0824 92.4382 37.3068 91.0973 37.3068C89.8473 37.3068 88.7649 37.1051 87.8501 36.7017C86.9411 36.2983 86.2251 35.7358 85.7024 35.0142C85.1854 34.2926 84.8928 33.4545 84.8246 32.5H87.0064C87.0632 33.1591 87.2848 33.7045 87.6712 34.1364C88.0632 34.5625 88.5575 34.8807 89.1541 35.0909C89.7564 35.2955 90.4041 35.3977 91.0973 35.3977C91.9041 35.3977 92.6286 35.267 93.2706 35.0057C93.9126 34.7386 94.4212 34.3693 94.7962 33.8977C95.1712 33.4205 95.3587 32.8636 95.3587 32.2273C95.3587 31.6477 95.1967 31.1761 94.8729 30.8125C94.549 30.4489 94.1229 30.1534 93.5945 29.9261C93.0661 29.6989 92.495 29.5 91.8814 29.3295L89.7337 28.7159C88.37 28.3239 87.2905 27.7642 86.495 27.0369C85.6996 26.3097 85.3018 25.358 85.3018 24.1818C85.3018 23.2045 85.5661 22.3523 86.0945 21.625C86.6286 20.892 87.3445 20.3239 88.2422 19.9205C89.1456 19.5114 90.1541 19.3068 91.2678 19.3068C92.3928 19.3068 93.3928 19.5085 94.2678 19.9119C95.1428 20.3097 95.8359 20.8551 96.3473 21.5483C96.8643 22.2415 97.1371 23.0284 97.1655 23.9091H95.12ZM110.425 23.9091C110.322 23.0455 109.908 22.375 109.18 21.8977C108.453 21.4205 107.561 21.1818 106.504 21.1818C105.732 21.1818 105.055 21.3068 104.476 21.5568C103.902 21.8068 103.453 22.1506 103.129 22.5881C102.811 23.0256 102.652 23.5227 102.652 24.0795C102.652 24.5455 102.763 24.946 102.984 25.2812C103.212 25.6108 103.501 25.8864 103.854 26.108C104.206 26.3239 104.575 26.5028 104.962 26.6449C105.348 26.7812 105.703 26.892 106.027 26.9773L107.8 27.4545C108.254 27.5739 108.76 27.7386 109.317 27.9489C109.879 28.1591 110.416 28.446 110.928 28.8097C111.445 29.1676 111.871 29.6278 112.206 30.1903C112.541 30.7528 112.709 31.4432 112.709 32.2614C112.709 33.2045 112.462 34.0568 111.967 34.8182C111.479 35.5795 110.763 36.1847 109.82 36.6335C108.882 37.0824 107.743 37.3068 106.402 37.3068C105.152 37.3068 104.07 37.1051 103.155 36.7017C102.246 36.2983 101.53 35.7358 101.007 35.0142C100.49 34.2926 100.197 33.4545 100.129 32.5H102.311C102.368 33.1591 102.589 33.7045 102.976 34.1364C103.368 34.5625 103.862 34.8807 104.459 35.0909C105.061 35.2955 105.709 35.3977 106.402 35.3977C107.209 35.3977 107.933 35.267 108.575 35.0057C109.217 34.7386 109.726 34.3693 110.101 33.8977C110.476 33.4205 110.663 32.8636 110.663 32.2273C110.663 31.6477 110.501 31.1761 110.178 30.8125C109.854 30.4489 109.428 30.1534 108.899 29.9261C108.371 29.6989 107.8 29.5 107.186 29.3295L105.038 28.7159C103.675 28.3239 102.595 27.7642 101.8 27.0369C101.004 26.3097 100.607 25.358 100.607 24.1818C100.607 23.2045 100.871 22.3523 101.399 21.625C101.933 20.892 102.649 20.3239 103.547 19.9205C104.45 19.5114 105.459 19.3068 106.572 19.3068C107.697 19.3068 108.697 19.5085 109.572 19.9119C110.447 20.3097 111.141 20.8551 111.652 21.5483C112.169 22.2415 112.442 23.0284 112.47 23.9091H110.425Z" fill="white"/>
<path d="M5.44847 5.37819L9.09825 47.0312L25.4751 51.6568L41.8982 47.024L45.5515 5.37819H5.44847ZM37.9688 14.9047L36.7343 28.9824L35.8793 38.6956L35.8045 39.5583L25.5071 42.4637L15.224 39.5583L14.5204 31.5362H19.5595L19.9176 35.6107L25.5143 37.1459L25.5303 37.1423L31.1145 35.6089L31.7005 28.9842H19.9817L19.8819 27.8369L19.6522 25.2468L19.5328 23.8766H32.1458L32.6054 18.6457H13.3928L13.2931 17.4966L13.0633 14.9065L12.944 13.5363H38.0917L37.9705 14.9065L37.9688 14.9047Z" fill="#04A8FF"/>
</g>
<defs>
<clipPath id="clip0_11_35">
<rect width="299" height="57" fill="white"/>
</clipPath>
</defs>
</svg>

