
<svg width="299" height="57" viewBox="0 0 299 57" fill="none" xmlns="http://www.w3.org/2000/svg">
<g clip-path="url(#clip0_11_35)">
<path d="M68.1136 37V19.5455H70.2273V27.3182H79.5341V19.5455H81.6477V37H79.5341V29.1932H70.2273V37H68.1136ZM84.9247 21.4205V19.5455H98.0156V21.4205H92.527V37H90.4134V21.4205H84.9247ZM101.278 19.5455H103.8L109.732 34.0341H109.937L115.869 19.5455H118.391V37H116.414V23.7386H116.244L110.789 37H108.88L103.425 23.7386H103.255V37H101.278V19.5455ZM122.629 37V19.5455H124.743V35.125H132.857V37H122.629Z" fill="white"/>
<path d="M4.21289 9.34375L7.95117 50.9025L24.9887 55.6562L41.9582 50.9025L45.7701 9.34375H4.21289ZM38.8146 48.342L24.9887 52.2162L11.1004 48.342L7.88887 12.6502H42.0885L38.8146 48.342ZM11.916 17.8604L12.0123 19.213L13.298 33.3238H24.9943V33.3183H31.3891L30.7434 39.9145L24.9434 41.4563V41.4675H24.898L19.098 39.9256L18.7299 35.851H13.5756L14.2156 43.9056L24.898 46.8001H24.9943V46.7778L35.6258 43.9L35.7221 42.9927L36.9229 29.5108L37.1041 28.1582H24.9434V28.1693H18.0842L17.6197 22.9258H37.5629L37.6592 21.8403L37.9311 19.213L38.0273 17.8604H24.9434H11.916Z" fill="#EA6D37"/>
</g>
<defs>
<clipPath id="clip0_11_35">
<rect width="299" height="57" fill="white"/>
</clipPath>
</defs>
</svg>
