
<svg width="299" height="57" viewBox="0 0 299 57" fill="none" xmlns="http://www.w3.org/2000/svg">
<g clip-path="url(#clip0_4_30)">
<path d="M14.4598 14.193H21.2585V32.9211C21.2585 41.3606 17.1423 44.3068 10.5666 44.3068C8.95706 44.3068 6.89806 44.0432 5.55681 43.6032L6.31806 38.1953C7.25693 38.5035 8.46587 38.7226 9.80712 38.7226C12.6709 38.7226 14.4598 37.4472 14.4598 32.8765V14.193ZM27.1618 36.9663C28.9507 37.889 31.8145 38.8134 34.7217 38.8134C37.8537 38.8134 39.5086 37.5381 39.5086 35.5609C39.5086 33.7583 38.0767 32.6592 34.4535 31.4284C29.4437 29.6703 26.1341 26.945 26.1341 22.5916C26.1341 17.5364 30.4732 13.7121 37.5402 13.7121C40.9839 13.7121 43.4453 14.3711 45.2342 15.2065L43.7136 20.5699C42.5499 19.9981 40.3586 19.1627 37.4514 19.1627C34.4988 19.1627 33.0669 20.5253 33.0669 22.0198C33.0669 23.9097 34.7217 24.7451 38.6585 26.2396C43.9818 28.174 46.4414 30.8993 46.4414 35.1191C46.4414 40.087 42.5952 44.3068 34.3194 44.3068C30.8756 44.3068 27.4754 43.3841 25.7752 42.4597L27.1618 36.9663Z" fill="#FFFF00" stroke="black" stroke-width="1.5"/>
<path d="M65.7955 19.5455H67.9091V32.0227C67.9091 33.1364 67.7045 34.0824 67.2955 34.8608C66.8864 35.6392 66.3097 36.2301 65.5653 36.6335C64.821 37.0369 63.9432 37.2386 62.9318 37.2386C61.9773 37.2386 61.1278 37.0653 60.3835 36.7188C59.6392 36.3665 59.054 35.8665 58.6278 35.2188C58.2017 34.571 57.9886 33.8011 57.9886 32.9091H60.0682C60.0682 33.4034 60.1903 33.8352 60.4347 34.2045C60.6847 34.5682 61.0256 34.8523 61.4574 35.0568C61.8892 35.2614 62.3807 35.3636 62.9318 35.3636C63.5398 35.3636 64.0568 35.2358 64.483 34.9801C64.9091 34.7244 65.233 34.3494 65.4545 33.8551C65.6818 33.3551 65.7955 32.7443 65.7955 32.0227V19.5455ZM75.7244 37.3068C74.8949 37.3068 74.142 37.1506 73.4659 36.8381C72.7898 36.5199 72.2528 36.0625 71.8551 35.4659C71.4574 34.8636 71.2585 34.1364 71.2585 33.2841C71.2585 32.5341 71.4063 31.9261 71.7017 31.4602C71.9972 30.9886 72.392 30.6193 72.8864 30.3523C73.3807 30.0852 73.9261 29.8864 74.5227 29.7557C75.125 29.6193 75.7301 29.5114 76.3381 29.4318C77.1335 29.3295 77.7784 29.2528 78.2727 29.2017C78.7727 29.1449 79.1364 29.0511 79.3636 28.9205C79.5966 28.7898 79.7131 28.5625 79.7131 28.2386V28.1705C79.7131 27.3295 79.483 26.6761 79.0227 26.2102C78.5682 25.7443 77.8778 25.5114 76.9517 25.5114C75.9915 25.5114 75.2386 25.7216 74.6932 26.142C74.1477 26.5625 73.7642 27.0114 73.5426 27.4886L71.6335 26.8068C71.9744 26.0114 72.429 25.392 72.9972 24.9489C73.571 24.5 74.196 24.1875 74.8722 24.0114C75.554 23.8295 76.2244 23.7386 76.8835 23.7386C77.304 23.7386 77.7869 23.7898 78.3324 23.892C78.8835 23.9886 79.4148 24.1903 79.9261 24.4972C80.4432 24.804 80.8722 25.267 81.2131 25.8864C81.554 26.5057 81.7244 27.3352 81.7244 28.375V37H79.7131V35.2273H79.6108C79.4744 35.5114 79.2472 35.8153 78.929 36.1392C78.6108 36.4631 78.1875 36.7386 77.6591 36.9659C77.1307 37.1932 76.4858 37.3068 75.7244 37.3068ZM76.0312 35.5C76.8267 35.5 77.4972 35.3438 78.0426 35.0312C78.5938 34.7188 79.0085 34.3153 79.2869 33.821C79.571 33.3267 79.7131 32.8068 79.7131 32.2614V30.4205C79.6278 30.5227 79.4403 30.6165 79.1506 30.7017C78.8665 30.7812 78.5369 30.8523 78.1619 30.9148C77.7926 30.9716 77.4318 31.0227 77.0795 31.0682C76.733 31.108 76.4517 31.142 76.2358 31.1705C75.7131 31.2386 75.2244 31.3494 74.7699 31.5028C74.321 31.6506 73.9574 31.875 73.679 32.1761C73.4063 32.4716 73.2699 32.875 73.2699 33.3864C73.2699 34.0852 73.5284 34.6136 74.0455 34.9716C74.5682 35.3239 75.2301 35.5 76.0312 35.5ZM95.6314 23.9091L90.7905 37H88.745L83.9041 23.9091H86.0859L89.6996 34.3409H89.8359L93.4496 23.9091H95.6314ZM101.74 37.3068C100.911 37.3068 100.158 37.1506 99.4815 36.8381C98.8054 36.5199 98.2685 36.0625 97.8707 35.4659C97.473 34.8636 97.2741 34.1364 97.2741 33.2841C97.2741 32.5341 97.4219 31.9261 97.7173 31.4602C98.0128 30.9886 98.4077 30.6193 98.902 30.3523C99.3963 30.0852 99.9418 29.8864 100.538 29.7557C101.141 29.6193 101.746 29.5114 102.354 29.4318C103.149 29.3295 103.794 29.2528 104.288 29.2017C104.788 29.1449 105.152 29.0511 105.379 28.9205C105.612 28.7898 105.729 28.5625 105.729 28.2386V28.1705C105.729 27.3295 105.499 26.6761 105.038 26.2102C104.584 25.7443 103.893 25.5114 102.967 25.5114C102.007 25.5114 101.254 25.7216 100.709 26.142C100.163 26.5625 99.7798 27.0114 99.5582 27.4886L97.6491 26.8068C97.9901 26.0114 98.4446 25.392 99.0128 24.9489C99.5866 24.5 100.212 24.1875 100.888 24.0114C101.57 23.8295 102.24 23.7386 102.899 23.7386C103.32 23.7386 103.803 23.7898 104.348 23.892C104.899 23.9886 105.43 24.1903 105.942 24.4972C106.459 24.804 106.888 25.267 107.229 25.8864C107.57 26.5057 107.74 27.3352 107.74 28.375V37H105.729V35.2273H105.626C105.49 35.5114 105.263 35.8153 104.945 36.1392C104.626 36.4631 104.203 36.7386 103.675 36.9659C103.146 37.1932 102.501 37.3068 101.74 37.3068ZM102.047 35.5C102.842 35.5 103.513 35.3438 104.058 35.0312C104.609 34.7188 105.024 34.3153 105.303 33.821C105.587 33.3267 105.729 32.8068 105.729 32.2614V30.4205C105.643 30.5227 105.456 30.6165 105.166 30.7017C104.882 30.7812 104.553 30.8523 104.178 30.9148C103.808 30.9716 103.447 31.0227 103.095 31.0682C102.749 31.108 102.467 31.142 102.251 31.1705C101.729 31.2386 101.24 31.3494 100.786 31.5028C100.337 31.6506 99.973 31.875 99.6946 32.1761C99.4219 32.4716 99.2855 32.875 99.2855 33.3864C99.2855 34.0852 99.544 34.6136 100.061 34.9716C100.584 35.3239 101.246 35.5 102.047 35.5ZM121.229 23.9091C121.127 23.0455 120.712 22.375 119.985 21.8977C119.258 21.4205 118.366 21.1818 117.309 21.1818C116.536 21.1818 115.86 21.3068 115.281 21.5568C114.707 21.8068 114.258 22.1506 113.934 22.5881C113.616 23.0256 113.457 23.5227 113.457 24.0795C113.457 24.5455 113.567 24.946 113.789 25.2812C114.016 25.6108 114.306 25.8864 114.658 26.108C115.011 26.3239 115.38 26.5028 115.766 26.6449C116.153 26.7812 116.508 26.892 116.832 26.9773L118.604 27.4545C119.059 27.5739 119.565 27.7386 120.121 27.9489C120.684 28.1591 121.221 28.446 121.732 28.8097C122.249 29.1676 122.675 29.6278 123.011 30.1903C123.346 30.7528 123.513 31.4432 123.513 32.2614C123.513 33.2045 123.266 34.0568 122.772 34.8182C122.283 35.5795 121.567 36.1847 120.624 36.6335C119.687 37.0824 118.548 37.3068 117.207 37.3068C115.957 37.3068 114.874 37.1051 113.96 36.7017C113.05 36.2983 112.335 35.7358 111.812 35.0142C111.295 34.2926 111.002 33.4545 110.934 32.5H113.116C113.173 33.1591 113.394 33.7045 113.781 34.1364C114.173 34.5625 114.667 34.8807 115.263 35.0909C115.866 35.2955 116.513 35.3977 117.207 35.3977C118.013 35.3977 118.738 35.267 119.38 35.0057C120.022 34.7386 120.531 34.3693 120.906 33.8977C121.281 33.4205 121.468 32.8636 121.468 32.2273C121.468 31.6477 121.306 31.1761 120.982 30.8125C120.658 30.4489 120.232 30.1534 119.704 29.9261C119.175 29.6989 118.604 29.5 117.991 29.3295L115.843 28.7159C114.479 28.3239 113.4 27.7642 112.604 27.0369C111.809 26.3097 111.411 25.358 111.411 24.1818C111.411 23.2045 111.675 22.3523 112.204 21.625C112.738 20.892 113.454 20.3239 114.352 19.9205C115.255 19.5114 116.263 19.3068 117.377 19.3068C118.502 19.3068 119.502 19.5085 120.377 19.9119C121.252 20.3097 121.945 20.8551 122.457 21.5483C122.974 22.2415 123.246 23.0284 123.275 23.9091H121.229ZM132.034 37.2727C130.807 37.2727 129.75 36.983 128.864 36.4034C127.977 35.8239 127.295 35.0256 126.818 34.0085C126.341 32.9915 126.102 31.8295 126.102 30.5227C126.102 29.1932 126.347 28.0199 126.835 27.0028C127.33 25.9801 128.017 25.1818 128.898 24.608C129.784 24.0284 130.818 23.7386 132 23.7386C132.92 23.7386 133.75 23.9091 134.489 24.25C135.227 24.5909 135.832 25.0682 136.304 25.6818C136.776 26.2955 137.068 27.0114 137.182 27.8295H135.17C135.017 27.233 134.676 26.7045 134.148 26.2443C133.625 25.7784 132.92 25.5455 132.034 25.5455C131.25 25.5455 130.563 25.75 129.972 26.1591C129.386 26.5625 128.929 27.1335 128.599 27.8722C128.276 28.6051 128.114 29.4659 128.114 30.4545C128.114 31.4659 128.273 32.3466 128.591 33.0966C128.915 33.8466 129.369 34.429 129.955 34.8438C130.545 35.2585 131.239 35.4659 132.034 35.4659C132.557 35.4659 133.031 35.375 133.457 35.1932C133.884 35.0114 134.244 34.75 134.54 34.4091C134.835 34.0682 135.045 33.6591 135.17 33.1818H137.182C137.068 33.9545 136.787 34.6506 136.338 35.2699C135.895 35.8835 135.307 36.3722 134.574 36.7358C133.847 37.0938 133 37.2727 132.034 37.2727ZM140.122 37V23.9091H142.065V25.8864H142.202C142.44 25.2386 142.872 24.7131 143.497 24.3097C144.122 23.9062 144.827 23.7045 145.611 23.7045C145.759 23.7045 145.943 23.7074 146.165 23.7131C146.386 23.7187 146.554 23.7273 146.668 23.7386V25.7841C146.599 25.767 146.443 25.7415 146.199 25.7074C145.96 25.6676 145.707 25.6477 145.44 25.6477C144.804 25.6477 144.236 25.7812 143.736 26.0483C143.241 26.3097 142.849 26.6733 142.56 27.1392C142.276 27.5994 142.134 28.125 142.134 28.7159V37H140.122ZM149.052 37V23.9091H151.063V37H149.052ZM150.075 21.7273C149.683 21.7273 149.344 21.5938 149.06 21.3267C148.782 21.0597 148.643 20.7386 148.643 20.3636C148.643 19.9886 148.782 19.6676 149.06 19.4006C149.344 19.1335 149.683 19 150.075 19C150.467 19 150.802 19.1335 151.08 19.4006C151.364 19.6676 151.506 19.9886 151.506 20.3636C151.506 20.7386 151.364 21.0597 151.08 21.3267C150.802 21.5938 150.467 21.7273 150.075 21.7273ZM154.747 41.9091V23.9091H156.69V25.9886H156.929C157.077 25.7614 157.281 25.4716 157.543 25.1193C157.81 24.7614 158.19 24.4432 158.685 24.1648C159.185 23.8807 159.861 23.7386 160.713 23.7386C161.815 23.7386 162.787 24.0142 163.628 24.5653C164.469 25.1165 165.125 25.8977 165.597 26.9091C166.068 27.9205 166.304 29.1136 166.304 30.4886C166.304 31.875 166.068 33.0767 165.597 34.0938C165.125 35.1051 164.472 35.8892 163.636 36.446C162.801 36.9972 161.838 37.2727 160.747 37.2727C159.906 37.2727 159.233 37.1335 158.727 36.8551C158.222 36.571 157.832 36.25 157.56 35.892C157.287 35.5284 157.077 35.2273 156.929 34.9886H156.759V41.9091H154.747ZM156.724 30.4545C156.724 31.4432 156.869 32.3153 157.159 33.071C157.449 33.821 157.872 34.4091 158.429 34.8352C158.986 35.2557 159.668 35.4659 160.474 35.4659C161.315 35.4659 162.017 35.2443 162.58 34.8011C163.148 34.3523 163.574 33.75 163.858 32.9943C164.148 32.233 164.293 31.3864 164.293 30.4545C164.293 29.5341 164.151 28.7045 163.866 27.9659C163.588 27.2216 163.165 26.6335 162.597 26.2017C162.034 25.7642 161.327 25.5455 160.474 25.5455C159.656 25.5455 158.969 25.7528 158.412 26.1676C157.855 26.5767 157.435 27.1506 157.151 27.8892C156.866 28.6222 156.724 29.4773 156.724 30.4545ZM175.065 23.9091V25.6136H168.281V23.9091H175.065ZM170.259 20.7727H172.27V33.25C172.27 33.8182 172.352 34.2443 172.517 34.5284C172.688 34.8068 172.903 34.9943 173.165 35.0909C173.432 35.1818 173.713 35.2273 174.009 35.2273C174.23 35.2273 174.412 35.2159 174.554 35.1932C174.696 35.1648 174.81 35.142 174.895 35.125L175.304 36.9318C175.168 36.983 174.977 37.0341 174.733 37.0852C174.489 37.142 174.179 37.1705 173.804 37.1705C173.236 37.1705 172.679 37.0483 172.134 36.804C171.594 36.5597 171.145 36.1875 170.787 35.6875C170.435 35.1875 170.259 34.5568 170.259 33.7955V20.7727ZM191.011 18.7273L185.386 39.625H183.545L189.17 18.7273H191.011ZM214.259 19.5455V37H212.214L202.702 23.2955H202.532V37H200.418V19.5455H202.464L212.009 33.2841H212.18V19.5455H214.259ZM223.534 37.2727C222.352 37.2727 221.315 36.9915 220.423 36.429C219.537 35.8665 218.844 35.0795 218.344 34.0682C217.849 33.0568 217.602 31.875 217.602 30.5227C217.602 29.1591 217.849 27.9687 218.344 26.9517C218.844 25.9347 219.537 25.1449 220.423 24.5824C221.315 24.0199 222.352 23.7386 223.534 23.7386C224.716 23.7386 225.75 24.0199 226.636 24.5824C227.528 25.1449 228.222 25.9347 228.716 26.9517C229.216 27.9687 229.466 29.1591 229.466 30.5227C229.466 31.875 229.216 33.0568 228.716 34.0682C228.222 35.0795 227.528 35.8665 226.636 36.429C225.75 36.9915 224.716 37.2727 223.534 37.2727ZM223.534 35.4659C224.432 35.4659 225.17 35.2358 225.75 34.7756C226.33 34.3153 226.759 33.7102 227.037 32.9602C227.315 32.2102 227.455 31.3977 227.455 30.5227C227.455 29.6477 227.315 28.8324 227.037 28.0767C226.759 27.321 226.33 26.7102 225.75 26.2443C225.17 25.7784 224.432 25.5455 223.534 25.5455C222.636 25.5455 221.898 25.7784 221.318 26.2443C220.739 26.7102 220.31 27.321 220.031 28.0767C219.753 28.8324 219.614 29.6477 219.614 30.5227C219.614 31.3977 219.753 32.2102 220.031 32.9602C220.31 33.7102 220.739 34.3153 221.318 34.7756C221.898 35.2358 222.636 35.4659 223.534 35.4659ZM237.479 37.2727C236.388 37.2727 235.425 36.9972 234.59 36.446C233.755 35.8892 233.102 35.1051 232.63 34.0938C232.158 33.0767 231.923 31.875 231.923 30.4886C231.923 29.1136 232.158 27.9205 232.63 26.9091C233.102 25.8977 233.758 25.1165 234.599 24.5653C235.44 24.0142 236.411 23.7386 237.513 23.7386C238.366 23.7386 239.039 23.8807 239.533 24.1648C240.033 24.4432 240.414 24.7614 240.675 25.1193C240.942 25.4716 241.15 25.7614 241.298 25.9886H241.468V19.5455H243.479V37H241.536V34.9886H241.298C241.15 35.2273 240.94 35.5284 240.667 35.892C240.394 36.25 240.005 36.571 239.499 36.8551C238.994 37.1335 238.32 37.2727 237.479 37.2727ZM237.752 35.4659C238.559 35.4659 239.241 35.2557 239.798 34.8352C240.354 34.4091 240.778 33.821 241.067 33.071C241.357 32.3153 241.502 31.4432 241.502 30.4545C241.502 29.4773 241.36 28.6222 241.076 27.8892C240.792 27.1506 240.371 26.5767 239.815 26.1676C239.258 25.7528 238.57 25.5455 237.752 25.5455C236.9 25.5455 236.19 25.7642 235.621 26.2017C235.059 26.6335 234.636 27.2216 234.352 27.9659C234.073 28.7045 233.934 29.5341 233.934 30.4545C233.934 31.3864 234.076 32.233 234.36 32.9943C234.65 33.75 235.076 34.3523 235.638 34.8011C236.207 35.2443 236.911 35.4659 237.752 35.4659ZM252.931 37.2727C251.67 37.2727 250.582 36.9943 249.667 36.4375C248.758 35.875 248.056 35.0909 247.562 34.0852C247.073 33.0739 246.829 31.8977 246.829 30.5568C246.829 29.2159 247.073 28.0341 247.562 27.0114C248.056 25.983 248.744 25.1818 249.624 24.608C250.511 24.0284 251.545 23.7386 252.727 23.7386C253.408 23.7386 254.082 23.8523 254.746 24.0795C255.411 24.3068 256.016 24.6761 256.562 25.1875C257.107 25.6932 257.542 26.3636 257.866 27.1989C258.19 28.0341 258.352 29.0625 258.352 30.2841V31.1364H248.261V29.3977H256.306C256.306 28.6591 256.158 28 255.863 27.4205C255.573 26.8409 255.158 26.3835 254.619 26.0483C254.085 25.7131 253.454 25.5455 252.727 25.5455C251.925 25.5455 251.232 25.7443 250.647 26.142C250.067 26.5341 249.621 27.0455 249.309 27.6761C248.996 28.3068 248.84 28.983 248.84 29.7045V30.8636C248.84 31.8523 249.011 32.6903 249.352 33.3778C249.698 34.0597 250.178 34.5795 250.792 34.9375C251.406 35.2898 252.119 35.4659 252.931 35.4659C253.46 35.4659 253.937 35.392 254.363 35.2443C254.795 35.0909 255.167 34.8636 255.479 34.5625C255.792 34.2557 256.033 33.875 256.204 33.4205L258.147 33.9659C257.942 34.625 257.599 35.2045 257.116 35.7045C256.633 36.1989 256.036 36.5852 255.326 36.8636C254.616 37.1364 253.817 37.2727 252.931 37.2727ZM268.366 19.5455H270.479V32.0227C270.479 33.1364 270.275 34.0824 269.866 34.8608C269.457 35.6392 268.88 36.2301 268.136 36.6335C267.391 37.0369 266.513 37.2386 265.502 37.2386C264.548 37.2386 263.698 37.0653 262.954 36.7188C262.21 36.3665 261.624 35.8665 261.198 35.2188C260.772 34.571 260.559 33.8011 260.559 32.9091H262.638C262.638 33.4034 262.761 33.8352 263.005 34.2045C263.255 34.5682 263.596 34.8523 264.028 35.0568C264.46 35.2614 264.951 35.3636 265.502 35.3636C266.11 35.3636 266.627 35.2358 267.053 34.9801C267.479 34.7244 267.803 34.3494 268.025 33.8551C268.252 33.3551 268.366 32.7443 268.366 32.0227V19.5455ZM283.715 26.8409L281.908 27.3523C281.795 27.0511 281.627 26.7585 281.406 26.4744C281.19 26.1847 280.894 25.946 280.519 25.7585C280.144 25.571 279.664 25.4773 279.079 25.4773C278.278 25.4773 277.61 25.6619 277.076 26.0312C276.548 26.3949 276.283 26.858 276.283 27.4205C276.283 27.9205 276.465 28.3153 276.829 28.6051C277.192 28.8949 277.761 29.1364 278.533 29.3295L280.477 29.8068C281.647 30.0909 282.519 30.5256 283.093 31.1108C283.667 31.6903 283.954 32.4375 283.954 33.3523C283.954 34.1023 283.738 34.7727 283.306 35.3636C282.88 35.9545 282.283 36.4205 281.516 36.7614C280.749 37.1023 279.857 37.2727 278.84 37.2727C277.505 37.2727 276.4 36.983 275.525 36.4034C274.65 35.8239 274.096 34.9773 273.863 33.8636L275.772 33.3864C275.954 34.0909 276.298 34.6193 276.803 34.9716C277.315 35.3239 277.982 35.5 278.806 35.5C279.744 35.5 280.488 35.3011 281.039 34.9034C281.596 34.5 281.874 34.017 281.874 33.4545C281.874 33 281.715 32.6193 281.397 32.3125C281.079 32 280.59 31.767 279.931 31.6136L277.749 31.1023C276.55 30.8182 275.67 30.3778 275.107 29.7812C274.55 29.179 274.272 28.4261 274.272 27.5227C274.272 26.7841 274.479 26.1307 274.894 25.5625C275.315 24.9943 275.886 24.5483 276.607 24.2244C277.335 23.9006 278.158 23.7386 279.079 23.7386C280.374 23.7386 281.391 24.0227 282.13 24.5909C282.874 25.1591 283.403 25.9091 283.715 26.8409Z" fill="white"/>
</g>
<defs>
<clipPath id="clip0_4_30">
<rect width="299" height="57" fill="white"/>
</clipPath>
</defs>
</svg>
