<svg width="299" height="57" viewBox="0 0 299 57" fill="none" xmlns="http://www.w3.org/2000/svg">
<g clip-path="url(#clip0_4_30)">
<path d="M14.4598 14.193H21.2585V32.9211C21.2585 41.3606 17.1423 44.3068 10.5666 44.3068C8.95706 44.3068 6.89806 44.0432 5.55681 43.6032L6.31806 38.1953C7.25693 38.5035 8.46587 38.7226 9.80712 38.7226C12.6709 38.7226 14.4598 37.4472 14.4598 32.8765V14.193ZM27.1618 36.9663C28.9507 37.889 31.8145 38.8134 34.7217 38.8134C37.8537 38.8134 39.5086 37.5381 39.5086 35.5609C39.5086 33.7583 38.0767 32.6592 34.4535 31.4284C29.4437 29.6703 26.1341 26.945 26.1341 22.5916C26.1341 17.5364 30.4732 13.7121 37.5402 13.7121C40.9839 13.7121 43.4453 14.3711 45.2342 15.2065L43.7136 20.5699C42.5499 19.9981 40.3586 19.1627 37.4514 19.1627C34.4988 19.1627 33.0669 20.5253 33.0669 22.0198C33.0669 23.9097 34.7217 24.7451 38.6585 26.2396C43.9818 28.174 46.4414 30.8993 46.4414 35.1191C46.4414 40.087 42.5952 44.3068 34.3194 44.3068C30.8756 44.3068 27.4754 43.3841 25.7752 42.4597L27.1618 36.9663Z" fill="#FFFF00" stroke="black" stroke-width="1.5"/>
<path d="M74.7955 19.5455H76.9091V32.0227C76.9091 33.1364 76.7045 34.0824 76.2955 34.8608C75.8864 35.6392 75.3097 36.2301 74.5653 36.6335C73.821 37.0369 72.9432 37.2386 71.9318 37.2386C70.9773 37.2386 70.1278 37.0653 69.3835 36.7188C68.6392 36.3665 68.054 35.8665 67.6278 35.2188C67.2017 34.571 66.9886 33.8011 66.9886 32.9091H69.0682C69.0682 33.4034 69.1903 33.8352 69.4347 34.2045C69.6847 34.5682 70.0256 34.8523 70.4574 35.0568C70.8892 35.2614 71.3807 35.3636 71.9318 35.3636C72.5398 35.3636 73.0568 35.2358 73.483 34.9801C73.9091 34.7244 74.233 34.3494 74.4545 33.8551C74.6818 33.3551 74.7955 32.7443 74.7955 32.0227V19.5455ZM84.7244 37.3068C83.8949 37.3068 83.142 37.1506 82.4659 36.8381C81.7898 36.5199 81.2528 36.0625 80.8551 35.4659C80.4574 34.8636 80.2585 34.1364 80.2585 33.2841C80.2585 32.5341 80.4063 31.9261 80.7017 31.4602C80.9972 30.9886 81.392 30.6193 81.8864 30.3523C82.3807 30.0852 82.9261 29.8864 83.5227 29.7557C84.125 29.6193 84.7301 29.5114 85.3381 29.4318C86.1335 29.3295 86.7784 29.2528 87.2727 29.2017C87.7727 29.1449 88.1364 29.0511 88.3636 28.9205C88.5966 28.7898 88.7131 28.5625 88.7131 28.2386V28.1705C88.7131 27.3295 88.483 26.6761 88.0227 26.2102C87.5682 25.7443 86.8778 25.5114 85.9517 25.5114C84.9915 25.5114 84.2386 25.7216 83.6932 26.142C83.1477 26.5625 82.7642 27.0114 82.5426 27.4886L80.6335 26.8068C80.9744 26.0114 81.429 25.392 81.9972 24.9489C82.571 24.5 83.196 24.1875 83.8722 24.0114C84.554 23.8295 85.2244 23.7386 85.8835 23.7386C86.304 23.7386 86.7869 23.7898 87.3324 23.892C87.8835 23.9886 88.4148 24.1903 88.9261 24.4972C89.4432 24.804 89.8722 25.267 90.2131 25.8864C90.554 26.5057 90.7244 27.3352 90.7244 28.375V37H88.7131V35.2273H88.6108C88.4744 35.5114 88.2472 35.8153 87.929 36.1392C87.6108 36.4631 87.1875 36.7386 86.6591 36.9659C86.1307 37.1932 85.4858 37.3068 84.7244 37.3068ZM85.0312 35.5C85.8267 35.5 86.4972 35.3438 87.0426 35.0312C87.5938 34.7188 88.0085 34.3153 88.2869 33.821C88.571 33.3267 88.7131 32.8068 88.7131 32.2614V30.4205C88.6278 30.5227 88.4403 30.6165 88.1506 30.7017C87.8665 30.7812 87.5369 30.8523 87.1619 30.9148C86.7926 30.9716 86.4318 31.0227 86.0795 31.0682C85.733 31.108 85.4517 31.142 85.2358 31.1705C84.7131 31.2386 84.2244 31.3494 83.7699 31.5028C83.321 31.6506 82.9574 31.875 82.679 32.1761C82.4063 32.4716 82.2699 32.875 82.2699 33.3864C82.2699 34.0852 82.5284 34.6136 83.0455 34.9716C83.5682 35.3239 84.2301 35.5 85.0312 35.5ZM104.631 23.9091L99.7905 37H97.745L92.9041 23.9091H95.0859L98.6996 34.3409H98.8359L102.45 23.9091H104.631ZM110.74 37.3068C109.911 37.3068 109.158 37.1506 108.482 36.8381C107.805 36.5199 107.268 36.0625 106.871 35.4659C106.473 34.8636 106.274 34.1364 106.274 33.2841C106.274 32.5341 106.422 31.9261 106.717 31.4602C107.013 30.9886 107.408 30.6193 107.902 30.3523C108.396 30.0852 108.942 29.8864 109.538 29.7557C110.141 29.6193 110.746 29.5114 111.354 29.4318C112.149 29.3295 112.794 29.2528 113.288 29.2017C113.788 29.1449 114.152 29.0511 114.379 28.9205C114.612 28.7898 114.729 28.5625 114.729 28.2386V28.1705C114.729 27.3295 114.499 26.6761 114.038 26.2102C113.584 25.7443 112.893 25.5114 111.967 25.5114C111.007 25.5114 110.254 25.7216 109.709 26.142C109.163 26.5625 108.78 27.0114 108.558 27.4886L106.649 26.8068C106.99 26.0114 107.445 25.392 108.013 24.9489C108.587 24.5 109.212 24.1875 109.888 24.0114C110.57 23.8295 111.24 23.7386 111.899 23.7386C112.32 23.7386 112.803 23.7898 113.348 23.892C113.899 23.9886 114.43 24.1903 114.942 24.4972C115.459 24.804 115.888 25.267 116.229 25.8864C116.57 26.5057 116.74 27.3352 116.74 28.375V37H114.729V35.2273H114.626C114.49 35.5114 114.263 35.8153 113.945 36.1392C113.626 36.4631 113.203 36.7386 112.675 36.9659C112.146 37.1932 111.501 37.3068 110.74 37.3068ZM111.047 35.5C111.842 35.5 112.513 35.3438 113.058 35.0312C113.609 34.7188 114.024 34.3153 114.303 33.821C114.587 33.3267 114.729 32.8068 114.729 32.2614V30.4205C114.643 30.5227 114.456 30.6165 114.166 30.7017C113.882 30.7812 113.553 30.8523 113.178 30.9148C112.808 30.9716 112.447 31.0227 112.095 31.0682C111.749 31.108 111.467 31.142 111.251 31.1705C110.729 31.2386 110.24 31.3494 109.786 31.5028C109.337 31.6506 108.973 31.875 108.695 32.1761C108.422 32.4716 108.286 32.875 108.286 33.3864C108.286 34.0852 108.544 34.6136 109.061 34.9716C109.584 35.3239 110.246 35.5 111.047 35.5ZM130.229 23.9091C130.127 23.0455 129.712 22.375 128.985 21.8977C128.258 21.4205 127.366 21.1818 126.309 21.1818C125.536 21.1818 124.86 21.3068 124.281 21.5568C123.707 21.8068 123.258 22.1506 122.934 22.5881C122.616 23.0256 122.457 23.5227 122.457 24.0795C122.457 24.5455 122.567 24.946 122.789 25.2812C123.016 25.6108 123.306 25.8864 123.658 26.108C124.011 26.3239 124.38 26.5028 124.766 26.6449C125.153 26.7812 125.508 26.892 125.832 26.9773L127.604 27.4545C128.059 27.5739 128.565 27.7386 129.121 27.9489C129.684 28.1591 130.221 28.446 130.732 28.8097C131.249 29.1676 131.675 29.6278 132.011 30.1903C132.346 30.7528 132.513 31.4432 132.513 32.2614C132.513 33.2045 132.266 34.0568 131.772 34.8182C131.283 35.5795 130.567 36.1847 129.624 36.6335C128.687 37.0824 127.548 37.3068 126.207 37.3068C124.957 37.3068 123.874 37.1051 122.96 36.7017C122.05 36.2983 121.335 35.7358 120.812 35.0142C120.295 34.2926 120.002 33.4545 119.934 32.5H122.116C122.173 33.1591 122.394 33.7045 122.781 34.1364C123.173 34.5625 123.667 34.8807 124.263 35.0909C124.866 35.2955 125.513 35.3977 126.207 35.3977C127.013 35.3977 127.738 35.267 128.38 35.0057C129.022 34.7386 129.531 34.3693 129.906 33.8977C130.281 33.4205 130.468 32.8636 130.468 32.2273C130.468 31.6477 130.306 31.1761 129.982 30.8125C129.658 30.4489 129.232 30.1534 128.704 29.9261C128.175 29.6989 127.604 29.5 126.991 29.3295L124.843 28.7159C123.479 28.3239 122.4 27.7642 121.604 27.0369C120.809 26.3097 120.411 25.358 120.411 24.1818C120.411 23.2045 120.675 22.3523 121.204 21.625C121.738 20.892 122.454 20.3239 123.352 19.9205C124.255 19.5114 125.263 19.3068 126.377 19.3068C127.502 19.3068 128.502 19.5085 129.377 19.9119C130.252 20.3097 130.945 20.8551 131.457 21.5483C131.974 22.2415 132.246 23.0284 132.275 23.9091H130.229ZM141.034 37.2727C139.807 37.2727 138.75 36.983 137.864 36.4034C136.977 35.8239 136.295 35.0256 135.818 34.0085C135.341 32.9915 135.102 31.8295 135.102 30.5227C135.102 29.1932 135.347 28.0199 135.835 27.0028C136.33 25.9801 137.017 25.1818 137.898 24.608C138.784 24.0284 139.818 23.7386 141 23.7386C141.92 23.7386 142.75 23.9091 143.489 24.25C144.227 24.5909 144.832 25.0682 145.304 25.6818C145.776 26.2955 146.068 27.0114 146.182 27.8295H144.17C144.017 27.233 143.676 26.7045 143.148 26.2443C142.625 25.7784 141.92 25.5455 141.034 25.5455C140.25 25.5455 139.563 25.75 138.972 26.1591C138.386 26.5625 137.929 27.1335 137.599 27.8722C137.276 28.6051 137.114 29.4659 137.114 30.4545C137.114 31.4659 137.273 32.3466 137.591 33.0966C137.915 33.8466 138.369 34.429 138.955 34.8438C139.545 35.2585 140.239 35.4659 141.034 35.4659C141.557 35.4659 142.031 35.375 142.457 35.1932C142.884 35.0114 143.244 34.75 143.54 34.4091C143.835 34.0682 144.045 33.6591 144.17 33.1818H146.182C146.068 33.9545 145.787 34.6506 145.338 35.2699C144.895 35.8835 144.307 36.3722 143.574 36.7358C142.847 37.0938 142 37.2727 141.034 37.2727ZM149.122 37V23.9091H151.065V25.8864H151.202C151.44 25.2386 151.872 24.7131 152.497 24.3097C153.122 23.9062 153.827 23.7045 154.611 23.7045C154.759 23.7045 154.943 23.7074 155.165 23.7131C155.386 23.7187 155.554 23.7273 155.668 23.7386V25.7841C155.599 25.767 155.443 25.7415 155.199 25.7074C154.96 25.6676 154.707 25.6477 154.44 25.6477C153.804 25.6477 153.236 25.7812 152.736 26.0483C152.241 26.3097 151.849 26.6733 151.56 27.1392C151.276 27.5994 151.134 28.125 151.134 28.7159V37H149.122ZM158.052 37V23.9091H160.063V37H158.052ZM159.075 21.7273C158.683 21.7273 158.344 21.5938 158.06 21.3267C157.782 21.0597 157.643 20.7386 157.643 20.3636C157.643 19.9886 157.782 19.6676 158.06 19.4006C158.344 19.1335 158.683 19 159.075 19C159.467 19 159.802 19.1335 160.08 19.4006C160.364 19.6676 160.506 19.9886 160.506 20.3636C160.506 20.7386 160.364 21.0597 160.08 21.3267C159.802 21.5938 159.467 21.7273 159.075 21.7273ZM163.747 41.9091V23.9091H165.69V25.9886H165.929C166.077 25.7614 166.281 25.4716 166.543 25.1193C166.81 24.7614 167.19 24.4432 167.685 24.1648C168.185 23.8807 168.861 23.7386 169.713 23.7386C170.815 23.7386 171.787 24.0142 172.628 24.5653C173.469 25.1165 174.125 25.8977 174.597 26.9091C175.068 27.9205 175.304 29.1136 175.304 30.4886C175.304 31.875 175.068 33.0767 174.597 34.0938C174.125 35.1051 173.472 35.8892 172.636 36.446C171.801 36.9972 170.838 37.2727 169.747 37.2727C168.906 37.2727 168.233 37.1335 167.727 36.8551C167.222 36.571 166.832 36.25 166.56 35.892C166.287 35.5284 166.077 35.2273 165.929 34.9886H165.759V41.9091H163.747ZM165.724 30.4545C165.724 31.4432 165.869 32.3153 166.159 33.071C166.449 33.821 166.872 34.4091 167.429 34.8352C167.986 35.2557 168.668 35.4659 169.474 35.4659C170.315 35.4659 171.017 35.2443 171.58 34.8011C172.148 34.3523 172.574 33.75 172.858 32.9943C173.148 32.233 173.293 31.3864 173.293 30.4545C173.293 29.5341 173.151 28.7045 172.866 27.9659C172.588 27.2216 172.165 26.6335 171.597 26.2017C171.034 25.7642 170.327 25.5455 169.474 25.5455C168.656 25.5455 167.969 25.7528 167.412 26.1676C166.855 26.5767 166.435 27.1506 166.151 27.8892C165.866 28.6222 165.724 29.4773 165.724 30.4545ZM184.065 23.9091V25.6136H177.281V23.9091H184.065ZM179.259 20.7727H181.27V33.25C181.27 33.8182 181.352 34.2443 181.517 34.5284C181.688 34.8068 181.903 34.9943 182.165 35.0909C182.432 35.1818 182.713 35.2273 183.009 35.2273C183.23 35.2273 183.412 35.2159 183.554 35.1932C183.696 35.1648 183.81 35.142 183.895 35.125L184.304 36.9318C184.168 36.983 183.977 37.0341 183.733 37.0852C183.489 37.142 183.179 37.1705 182.804 37.1705C182.236 37.1705 181.679 37.0483 181.134 36.804C180.594 36.5597 180.145 36.1875 179.787 35.6875C179.435 35.1875 179.259 34.5568 179.259 33.7955V20.7727ZM200.011 18.7273L194.386 39.625H192.545L198.17 18.7273H200.011ZM223.259 19.5455V37H221.214L211.702 23.2955H211.532V37H209.418V19.5455H211.464L221.009 33.2841H221.18V19.5455H223.259ZM232.534 37.2727C231.352 37.2727 230.315 36.9915 229.423 36.429C228.537 35.8665 227.844 35.0795 227.344 34.0682C226.849 33.0568 226.602 31.875 226.602 30.5227C226.602 29.1591 226.849 27.9687 227.344 26.9517C227.844 25.9347 228.537 25.1449 229.423 24.5824C230.315 24.0199 231.352 23.7386 232.534 23.7386C233.716 23.7386 234.75 24.0199 235.636 24.5824C236.528 25.1449 237.222 25.9347 237.716 26.9517C238.216 27.9687 238.466 29.1591 238.466 30.5227C238.466 31.875 238.216 33.0568 237.716 34.0682C237.222 35.0795 236.528 35.8665 235.636 36.429C234.75 36.9915 233.716 37.2727 232.534 37.2727ZM232.534 35.4659C233.432 35.4659 234.17 35.2358 234.75 34.7756C235.33 34.3153 235.759 33.7102 236.037 32.9602C236.315 32.2102 236.455 31.3977 236.455 30.5227C236.455 29.6477 236.315 28.8324 236.037 28.0767C235.759 27.321 235.33 26.7102 234.75 26.2443C234.17 25.7784 233.432 25.5455 232.534 25.5455C231.636 25.5455 230.898 25.7784 230.318 26.2443C229.739 26.7102 229.31 27.321 229.031 28.0767C228.753 28.8324 228.614 29.6477 228.614 30.5227C228.614 31.3977 228.753 32.2102 229.031 32.9602C229.31 33.7102 229.739 34.3153 230.318 34.7756C230.898 35.2358 231.636 35.4659 232.534 35.4659ZM246.479 37.2727C245.388 37.2727 244.425 36.9972 243.59 36.446C242.755 35.8892 242.102 35.1051 241.63 34.0938C241.158 33.0767 240.923 31.875 240.923 30.4886C240.923 29.1136 241.158 27.9205 241.63 26.9091C242.102 25.8977 242.758 25.1165 243.599 24.5653C244.44 24.0142 245.411 23.7386 246.513 23.7386C247.366 23.7386 248.039 23.8807 248.533 24.1648C249.033 24.4432 249.414 24.7614 249.675 25.1193C249.942 25.4716 250.15 25.7614 250.298 25.9886H250.468V19.5455H252.479V37H250.536V34.9886H250.298C250.15 35.2273 249.94 35.5284 249.667 35.892C249.394 36.25 249.005 36.571 248.499 36.8551C247.994 37.1335 247.32 37.2727 246.479 37.2727ZM246.752 35.4659C247.559 35.4659 248.241 35.2557 248.798 34.8352C249.354 34.4091 249.778 33.821 250.067 33.071C250.357 32.3153 250.502 31.4432 250.502 30.4545C250.502 29.4773 250.36 28.6222 250.076 27.8892C249.792 27.1506 249.371 26.5767 248.815 26.1676C248.258 25.7528 247.57 25.5455 246.752 25.5455C245.9 25.5455 245.19 25.7642 244.621 26.2017C244.059 26.6335 243.636 27.2216 243.352 27.9659C243.073 28.7045 242.934 29.5341 242.934 30.4545C242.934 31.3864 243.076 32.233 243.36 32.9943C243.65 33.75 244.076 34.3523 244.638 34.8011C245.207 35.2443 245.911 35.4659 246.752 35.4659ZM261.931 37.2727C260.67 37.2727 259.582 36.9943 258.667 36.4375C257.758 35.875 257.056 35.0909 256.562 34.0852C256.073 33.0739 255.829 31.8977 255.829 30.5568C255.829 29.2159 256.073 28.0341 256.562 27.0114C257.056 25.983 257.744 25.1818 258.624 24.608C259.511 24.0284 260.545 23.7386 261.727 23.7386C262.408 23.7386 263.082 23.8523 263.746 24.0795C264.411 24.3068 265.016 24.6761 265.562 25.1875C266.107 25.6932 266.542 26.3636 266.866 27.1989C267.19 28.0341 267.352 29.0625 267.352 30.2841V31.1364H257.261V29.3977H265.306C265.306 28.6591 265.158 28 264.863 27.4205C264.573 26.8409 264.158 26.3835 263.619 26.0483C263.085 25.7131 262.454 25.5455 261.727 25.5455C260.925 25.5455 260.232 25.7443 259.647 26.142C259.067 26.5341 258.621 27.0455 258.309 27.6761C257.996 28.3068 257.84 28.983 257.84 29.7045V30.8636C257.84 31.8523 258.011 32.6903 258.352 33.3778C258.698 34.0597 259.178 34.5795 259.792 34.9375C260.406 35.2898 261.119 35.4659 261.931 35.4659C262.46 35.4659 262.937 35.392 263.363 35.2443C263.795 35.0909 264.167 34.8636 264.479 34.5625C264.792 34.2557 265.033 33.875 265.204 33.4205L267.147 33.9659C266.942 34.625 266.599 35.2045 266.116 35.7045C265.633 36.1989 265.036 36.5852 264.326 36.8636C263.616 37.1364 262.817 37.2727 261.931 37.2727ZM277.366 19.5455H279.479V32.0227C279.479 33.1364 279.275 34.0824 278.866 34.8608C278.457 35.6392 277.88 36.2301 277.136 36.6335C276.391 37.0369 275.513 37.2386 274.502 37.2386C273.548 37.2386 272.698 37.0653 271.954 36.7188C271.21 36.3665 270.624 35.8665 270.198 35.2188C269.772 34.571 269.559 33.8011 269.559 32.9091H271.638C271.638 33.4034 271.761 33.8352 272.005 34.2045C272.255 34.5682 272.596 34.8523 273.028 35.0568C273.46 35.2614 273.951 35.3636 274.502 35.3636C275.11 35.3636 275.627 35.2358 276.053 34.9801C276.479 34.7244 276.803 34.3494 277.025 33.8551C277.252 33.3551 277.366 32.7443 277.366 32.0227V19.5455ZM292.715 26.8409L290.908 27.3523C290.795 27.0511 290.627 26.7585 290.406 26.4744C290.19 26.1847 289.894 25.946 289.519 25.7585C289.144 25.571 288.664 25.4773 288.079 25.4773C287.278 25.4773 286.61 25.6619 286.076 26.0312C285.548 26.3949 285.283 26.858 285.283 27.4205C285.283 27.9205 285.465 28.3153 285.829 28.6051C286.192 28.8949 286.761 29.1364 287.533 29.3295L289.477 29.8068C290.647 30.0909 291.519 30.5256 292.093 31.1108C292.667 31.6903 292.954 32.4375 292.954 33.3523C292.954 34.1023 292.738 34.7727 292.306 35.3636C291.88 35.9545 291.283 36.4205 290.516 36.7614C289.749 37.1023 288.857 37.2727 287.84 37.2727C286.505 37.2727 285.4 36.983 284.525 36.4034C283.65 35.8239 283.096 34.9773 282.863 33.8636L284.772 33.3864C284.954 34.0909 285.298 34.6193 285.803 34.9716C286.315 35.3239 286.982 35.5 287.806 35.5C288.744 35.5 289.488 35.3011 290.039 34.9034C290.596 34.5 290.874 34.017 290.874 33.4545C290.874 33 290.715 32.6193 290.397 32.3125C290.079 32 289.59 31.767 288.931 31.6136L286.749 31.1023C285.55 30.8182 284.67 30.3778 284.107 29.7812C283.55 29.179 283.272 28.4261 283.272 27.5227C283.272 26.7841 283.479 26.1307 283.894 25.5625C284.315 24.9943 284.886 24.5483 285.607 24.2244C286.335 23.9006 287.158 23.7386 288.079 23.7386C289.374 23.7386 290.391 24.0227 291.13 24.5909C291.874 25.1591 292.403 25.9091 292.715 26.8409Z" fill="white"/>
</g>
<defs>
<clipPath id="clip0_4_30">
<rect width="299" height="57" fill="white"/>
</clipPath>
</defs>
</svg>
