
<svg width="299" height="57" viewBox="0 0 299 57" fill="none" xmlns="http://www.w3.org/2000/svg">
<g clip-path="url(#clip0_4_30)">
<path d="M14.4598 14.193H21.2585V32.9211C21.2585 41.3606 17.1423 44.3068 10.5666 44.3068C8.95706 44.3068 6.89806 44.0432 5.55681 43.6032L6.31806 38.1953C7.25693 38.5035 8.46587 38.7226 9.80712 38.7226C12.6709 38.7226 14.4598 37.4472 14.4598 32.8765V14.193ZM27.1618 36.9663C28.9507 37.889 31.8145 38.8134 34.7217 38.8134C37.8537 38.8134 39.5086 37.5381 39.5086 35.5609C39.5086 33.7583 38.0767 32.6592 34.4535 31.4284C29.4437 29.6703 26.1341 26.945 26.1341 22.5916C26.1341 17.5364 30.4732 13.7121 37.5402 13.7121C40.9839 13.7121 43.4453 14.3711 45.2342 15.2065L43.7136 20.5699C42.5499 19.9981 40.3586 19.1627 37.4514 19.1627C34.4988 19.1627 33.0669 20.5253 33.0669 22.0198C33.0669 23.9097 34.7217 24.7451 38.6585 26.2396C43.9818 28.174 46.4414 30.8993 46.4414 35.1191C46.4414 40.087 42.5952 44.3068 34.3194 44.3068C30.8756 44.3068 27.4754 43.3841 25.7752 42.4597L27.1618 36.9663Z" fill="#FFFF00" stroke="black" stroke-width="1.5"/>
</g>
<defs>
<clipPath id="clip0_4_30">
<rect width="299" height="57" fill="white"/>
</clipPath>
</defs>
</svg>
