<svg xmlns="http://www.w3.org/2000/svg" width="130" height="57" viewBox="0 0 130 57" fill="none">
<rect width="130" height="57" fill="#1E1E1E"/>
<g clip-path="url(#clip0_0_1)">
<path d="M29 30.9462C31.3824 30.9462 33.3137 29.0482 33.3137 26.7069C33.3137 24.3655 31.3824 22.4675 29 22.4675C26.6176 22.4675 24.6862 24.3655 24.6862 26.7069C24.6862 29.0482 26.6176 30.9462 29 30.9462Z" fill="#1E90FF"/>
<path d="M16.9215 35.1358L15.9669 34.8959C8.87642 33.136 4.80917 30.1435 4.80917 26.6974C4.80917 23.2489 8.87884 20.2588 15.9669 18.4989L16.9215 18.2614L17.1898 19.19C17.9064 21.6213 18.8246 23.9908 19.9351 26.2746L20.1405 26.6974L19.9351 27.1201C18.8234 29.4073 17.9027 31.7775 17.1898 34.2095L16.9215 35.1358ZM15.5271 20.6601C10.1403 22.1516 6.83192 24.4269 6.83192 26.6974C6.83192 28.9631 10.1379 31.2408 15.5271 32.7299C16.1868 30.6684 16.9843 28.652 17.9075 26.6974C16.9777 24.7395 16.1824 22.7226 15.5271 20.6601ZM41.0761 35.1358L40.8103 34.2048C40.0917 31.773 39.1728 29.4028 38.0625 27.1178L37.8571 26.6974L38.0625 26.2723C39.1742 23.9899 40.0901 21.6173 40.8103 19.1853L41.0761 18.259L42.0307 18.4965C49.1236 20.2564 53.1884 23.2465 53.1884 26.6974C53.1884 30.1459 49.1212 33.136 42.0307 34.8959L41.0761 35.1358ZM40.0853 26.6974C41.0519 28.7541 41.8567 30.7776 42.4705 32.7299C47.8597 31.2408 51.1681 28.9631 51.1681 26.6974C51.1681 24.4269 47.8621 22.154 42.4705 20.6601C41.8114 22.7219 41.0146 24.7387 40.0853 26.6974Z" fill="#1E90FF"/>
<path d="M15.5126 20.6506L15.2468 19.7244C13.2506 12.8179 13.8548 7.87075 16.907 6.1465C19.8916 4.44837 24.6935 6.45525 29.7226 11.5259L30.4089 12.2194L29.7226 12.9105C27.9364 14.7361 26.3038 16.7012 24.8409 18.7862L24.5678 19.171L24.0942 19.209C21.5218 19.4075 18.9702 19.8118 16.4648 20.4179L15.5126 20.6506ZM19.3358 7.51925C18.7944 7.51925 18.3159 7.63562 17.9123 7.86362C15.9113 8.9965 15.5585 12.9414 16.936 18.2661C19.0893 17.7982 21.2618 17.4634 23.4513 17.2757C24.7189 15.5089 26.1017 13.8246 27.5911 12.2336C24.4422 9.2245 21.4697 7.51925 19.3358 7.51925ZM38.6618 47.8562C35.7908 47.8562 32.103 45.7282 28.275 41.8665L27.5911 41.1754L28.275 40.4866C30.0615 38.6581 31.6948 36.6907 33.1591 34.6037L33.4298 34.2237L33.8986 34.1786C36.4718 33.9836 39.0244 33.5809 41.5304 32.9745L42.485 32.737L42.7533 33.6656C44.7398 40.5674 44.138 45.5216 41.0906 47.2459C40.3507 47.658 39.5123 47.8688 38.6618 47.8562ZM30.4089 41.1587C33.5554 44.1679 36.5303 45.8755 38.6618 45.8755C39.2056 45.8755 39.6841 45.7567 40.0853 45.5311C42.0887 44.3959 42.4439 40.4439 41.0616 35.1191C38.9107 35.5894 36.7358 35.9266 34.5414 36.1142C33.2792 37.8839 31.8987 39.5691 30.4089 41.1587Z" fill="#1E90FF"/>
<path d="M42.485 20.6506L41.5304 20.4155C39.0245 19.8076 36.4719 19.4033 33.8986 19.2066L33.4297 19.1663L33.1591 18.7815C31.6969 16.6953 30.0634 14.7301 28.275 12.9058L27.5911 12.2146L28.275 11.5259C33.3017 6.45763 38.1012 4.45075 41.0906 6.1465C44.1404 7.87313 44.747 12.8203 42.7532 19.7244L42.485 20.6506ZM34.5414 17.2758C36.8469 17.4776 39.0316 17.8173 41.0616 18.2661C42.4415 12.9414 42.0887 8.9965 40.0852 7.86125C38.0939 6.72838 34.3457 8.46213 30.4089 12.2336C31.8976 13.8249 33.2799 15.5064 34.5414 17.2758ZM19.3357 47.8562C18.4854 47.8682 17.6471 47.6575 16.907 47.2459C13.8547 45.5216 13.2506 40.5698 15.2443 33.6656L15.5053 32.737L16.4599 32.9745C18.7896 33.5516 21.3561 33.9578 24.0917 34.1786L24.5606 34.2238L24.8337 34.6038C26.2933 36.689 27.927 38.6579 29.7153 40.4866L30.4017 41.1754L29.7153 41.8665C25.8897 45.7306 22.2019 47.8562 19.3357 47.8562ZM16.936 35.1215C15.5585 40.4463 15.9113 44.3983 17.9123 45.5335C19.9061 46.6498 23.6422 44.9279 27.5911 41.1588C26.1023 39.5673 24.7195 37.8831 23.4513 36.1166C21.2596 35.9261 19.0831 35.5937 16.936 35.1215Z" fill="#1E90FF"/>
<path d="M29 36.3684C27.3398 36.3684 25.636 36.2995 23.925 36.1594L23.4513 36.119L23.1783 35.7343C22.2134 34.3708 21.3056 32.9691 20.4571 31.5329C19.6148 30.0928 18.832 28.6198 18.1105 27.1178L17.9075 26.6974L18.1105 26.2723C18.8331 24.7713 19.6137 23.2988 20.4571 21.8595C21.2957 20.444 22.2116 19.0285 23.1783 17.6558L23.4513 17.2758L23.925 17.233C27.3008 16.9551 30.6944 16.9551 34.0702 17.233L34.539 17.2781L34.8121 17.6581C36.7449 20.3864 38.4425 23.2686 39.8871 26.2746L40.0877 26.6998L39.8871 27.1201C38.4465 30.1282 36.7487 33.0107 34.8121 35.7366L34.539 36.1214L34.0702 36.1618C32.364 36.2971 30.6578 36.3684 29 36.3684ZM24.5678 34.2214C27.5524 34.4423 30.4476 34.4423 33.4298 34.2214C35.0946 31.8255 36.5745 29.3105 37.8571 26.6974C36.579 24.0819 35.0989 21.5666 33.4298 19.1734C30.4801 18.9501 27.5174 18.9501 24.5678 19.1734C22.8973 21.5657 21.4171 24.0812 20.1405 26.6974C21.4259 29.309 22.9057 31.8239 24.5678 34.2214Z" fill="#1E90FF"/>
</g>
<path d="M68.1136 36V18.5455H74.0114C75.375 18.5455 76.4943 18.7784 77.3693 19.2443C78.2443 19.7045 78.892 20.3381 79.3125 21.1449C79.733 21.9517 79.9432 22.8693 79.9432 23.8977C79.9432 24.9261 79.733 25.8381 79.3125 26.6335C78.892 27.429 78.2472 28.054 77.3778 28.5085C76.5085 28.9574 75.3977 29.1818 74.0455 29.1818H69.2727V27.2727H73.9773C74.9091 27.2727 75.6591 27.1364 76.2273 26.8636C76.8011 26.5909 77.2159 26.2045 77.4716 25.7045C77.733 25.1989 77.8636 24.5966 77.8636 23.8977C77.8636 23.1989 77.733 22.5881 77.4716 22.0653C77.2102 21.5426 76.7926 21.1392 76.2188 20.8551C75.6449 20.5653 74.8864 20.4205 73.9432 20.4205H70.2273V36H68.1136ZM76.3295 28.1591L80.625 36H78.1705L73.9432 28.1591H76.3295ZM88.5405 36.2727C87.2791 36.2727 86.1911 35.9943 85.2763 35.4375C84.3672 34.875 83.6655 34.0909 83.1712 33.0852C82.6825 32.0739 82.4382 30.8977 82.4382 29.5568C82.4382 28.2159 82.6825 27.0341 83.1712 26.0114C83.6655 24.983 84.353 24.1818 85.2337 23.608C86.12 23.0284 87.1541 22.7386 88.3359 22.7386C89.0178 22.7386 89.6911 22.8523 90.3558 23.0795C91.0206 23.3068 91.6257 23.6761 92.1712 24.1875C92.7166 24.6932 93.1513 25.3636 93.4751 26.1989C93.799 27.0341 93.9609 28.0625 93.9609 29.2841V30.1364H83.87V28.3977H91.9155C91.9155 27.6591 91.7678 27 91.4723 26.4205C91.1825 25.8409 90.7678 25.3835 90.228 25.0483C89.6939 24.7131 89.0632 24.5455 88.3359 24.5455C87.5348 24.5455 86.8416 24.7443 86.2564 25.142C85.6768 25.5341 85.2308 26.0455 84.9183 26.6761C84.6058 27.3068 84.4496 27.983 84.4496 28.7045V29.8636C84.4496 30.8523 84.62 31.6903 84.9609 32.3778C85.3075 33.0597 85.7876 33.5795 86.4013 33.9375C87.0149 34.2898 87.728 34.4659 88.5405 34.4659C89.0689 34.4659 89.5462 34.392 89.9723 34.2443C90.4041 34.0909 90.7763 33.8636 91.0888 33.5625C91.4013 33.2557 91.6428 32.875 91.8132 32.4205L93.7564 32.9659C93.5518 33.625 93.2081 34.2045 92.7251 34.7045C92.2422 35.1989 91.6456 35.5852 90.9354 35.8636C90.2251 36.1364 89.4268 36.2727 88.5405 36.2727ZM100.873 36.3068C100.043 36.3068 99.2905 36.1506 98.6143 35.8381C97.9382 35.5199 97.4013 35.0625 97.0036 34.4659C96.6058 33.8636 96.407 33.1364 96.407 32.2841C96.407 31.5341 96.5547 30.9261 96.8501 30.4602C97.1456 29.9886 97.5405 29.6193 98.0348 29.3523C98.5291 29.0852 99.0746 28.8864 99.6712 28.7557C100.273 28.6193 100.879 28.5114 101.487 28.4318C102.282 28.3295 102.927 28.2528 103.421 28.2017C103.921 28.1449 104.285 28.0511 104.512 27.9205C104.745 27.7898 104.862 27.5625 104.862 27.2386V27.1705C104.862 26.3295 104.631 25.6761 104.171 25.2102C103.717 24.7443 103.026 24.5114 102.1 24.5114C101.14 24.5114 100.387 24.7216 99.8416 25.142C99.2962 25.5625 98.9126 26.0114 98.6911 26.4886L96.782 25.8068C97.1229 25.0114 97.5774 24.392 98.1456 23.9489C98.7195 23.5 99.3445 23.1875 100.021 23.0114C100.702 22.8295 101.373 22.7386 102.032 22.7386C102.452 22.7386 102.935 22.7898 103.481 22.892C104.032 22.9886 104.563 23.1903 105.075 23.4972C105.592 23.804 106.021 24.267 106.362 24.8864C106.702 25.5057 106.873 26.3352 106.873 27.375V36H104.862V34.2273H104.759C104.623 34.5114 104.396 34.8153 104.077 35.1392C103.759 35.4631 103.336 35.7386 102.808 35.9659C102.279 36.1932 101.634 36.3068 100.873 36.3068ZM101.18 34.5C101.975 34.5 102.646 34.3438 103.191 34.0312C103.742 33.7188 104.157 33.3153 104.435 32.821C104.719 32.3267 104.862 31.8068 104.862 31.2614V29.4205C104.776 29.5227 104.589 29.6165 104.299 29.7017C104.015 29.7812 103.685 29.8523 103.31 29.9148C102.941 29.9716 102.58 30.0227 102.228 30.0682C101.881 30.108 101.6 30.142 101.384 30.1705C100.862 30.2386 100.373 30.3494 99.9183 30.5028C99.4695 30.6506 99.1058 30.875 98.8274 31.1761C98.5547 31.4716 98.4183 31.875 98.4183 32.3864C98.4183 33.0852 98.6768 33.6136 99.1939 33.9716C99.7166 34.3239 100.379 34.5 101.18 34.5ZM115.862 36.2727C114.635 36.2727 113.578 35.983 112.692 35.4034C111.805 34.8239 111.124 34.0256 110.646 33.0085C110.169 31.9915 109.93 30.8295 109.93 29.5227C109.93 28.1932 110.175 27.0199 110.663 26.0028C111.158 24.9801 111.845 24.1818 112.726 23.608C113.612 23.0284 114.646 22.7386 115.828 22.7386C116.749 22.7386 117.578 22.9091 118.317 23.25C119.055 23.5909 119.661 24.0682 120.132 24.6818C120.604 25.2955 120.896 26.0114 121.01 26.8295H118.999C118.845 26.233 118.504 25.7045 117.976 25.2443C117.453 24.7784 116.749 24.5455 115.862 24.5455C115.078 24.5455 114.391 24.75 113.8 25.1591C113.214 25.5625 112.757 26.1335 112.428 26.8722C112.104 27.6051 111.942 28.4659 111.942 29.4545C111.942 30.4659 112.101 31.3466 112.419 32.0966C112.743 32.8466 113.197 33.429 113.783 33.8438C114.374 34.2585 115.067 34.4659 115.862 34.4659C116.385 34.4659 116.859 34.375 117.286 34.1932C117.712 34.0114 118.072 33.75 118.368 33.4091C118.663 33.0682 118.874 32.6591 118.999 32.1818H121.01C120.896 32.9545 120.615 33.6506 120.166 34.2699C119.723 34.8835 119.135 35.3722 118.402 35.7358C117.675 36.0938 116.828 36.2727 115.862 36.2727ZM129.643 22.9091V24.6136H122.859V22.9091H129.643ZM124.837 19.7727H126.848V32.25C126.848 32.8182 126.93 33.2443 127.095 33.5284C127.266 33.8068 127.482 33.9943 127.743 34.0909C128.01 34.1818 128.291 34.2273 128.587 34.2273C128.808 34.2273 128.99 34.2159 129.132 34.1932C129.274 34.1648 129.388 34.142 129.473 34.125L129.882 35.9318C129.746 35.983 129.555 36.0341 129.311 36.0852C129.067 36.142 128.757 36.1705 128.382 36.1705C127.814 36.1705 127.257 36.0483 126.712 35.804C126.172 35.5597 125.723 35.1875 125.365 34.6875C125.013 34.1875 124.837 33.5568 124.837 32.7955V19.7727Z" fill="white"/>
<defs>
<clipPath id="clip0_0_1">
<rect width="58" height="57" fill="white"/>
</clipPath>
</defs>
</svg>
